<mxfile host="65bd71144e">
    <diagram id="DbbBkInavSL52jJFdnZq" name="Page-1">
        <mxGraphModel dx="563" dy="410" grid="1" gridSize="10" guides="1" tooltips="1" connect="1" arrows="1" fold="1" page="1" pageScale="1" pageWidth="850" pageHeight="1100" math="0" shadow="0">
            <root>
                <mxCell id="0"/>
                <mxCell id="1" parent="0"/>
                <mxCell id="2" value="" style="rounded=0;whiteSpace=wrap;html=1;" vertex="1" parent="1">
                    <mxGeometry x="40" y="50" width="120" height="280" as="geometry"/>
                </mxCell>
                <mxCell id="3" value="&lt;b&gt;&lt;font color=&quot;#80ff00&quot;&gt;Instructor:&lt;/font&gt;&lt;/b&gt;" style="rounded=1;whiteSpace=wrap;html=1;" vertex="1" parent="1">
                    <mxGeometry x="40" y="50" width="120" height="60" as="geometry"/>
                </mxCell>
                <mxCell id="4" value="" style="rounded=0;whiteSpace=wrap;html=1;fontColor=#80FF00;" vertex="1" parent="1">
                    <mxGeometry x="280" y="50" width="120" height="270" as="geometry"/>
                </mxCell>
                <mxCell id="5" value="&lt;b&gt;Students:&lt;/b&gt;" style="rounded=1;whiteSpace=wrap;html=1;fontColor=#80FF00;" vertex="1" parent="1">
                    <mxGeometry x="280" y="50" width="120" height="60" as="geometry"/>
                </mxCell>
                <mxCell id="6" value="" style="endArrow=classic;html=1;fontColor=#80FF00;exitX=-0.002;exitY=0.64;exitDx=0;exitDy=0;exitPerimeter=0;" edge="1" parent="1" source="5">
                    <mxGeometry width="50" height="50" relative="1" as="geometry">
                        <mxPoint x="260" y="240" as="sourcePoint"/>
                        <mxPoint x="170" y="90" as="targetPoint"/>
                    </mxGeometry>
                </mxCell>
                <mxCell id="7" value="&lt;font color=&quot;#ff0000&quot;&gt;Validations:&lt;/font&gt;" style="rounded=1;whiteSpace=wrap;html=1;fontColor=#80FF00;" vertex="1" parent="1">
                    <mxGeometry x="40" y="125" width="120" height="60" as="geometry"/>
                </mxCell>
                <mxCell id="8" value="Validations:" style="rounded=1;whiteSpace=wrap;html=1;fontColor=#FF0000;" vertex="1" parent="1">
                    <mxGeometry x="280" y="120" width="120" height="60" as="geometry"/>
                </mxCell>
            </root>
        </mxGraphModel>
    </diagram>
</mxfile>